<?xml version="1.0" standalone="no"?><!DOCTYPE svg PUBLIC "-//W3C//DTD SVG 1.1//EN" "http://www.w3.org/Graphics/SVG/1.1/DTD/svg11.dtd"><svg t="1495560204259" class="icon" style="" viewBox="0 0 1043 1024" version="1.1" xmlns="http://www.w3.org/2000/svg" p-id="1433" xmlns:xlink="http://www.w3.org/1999/xlink" width="203.7109375" height="200"><defs><style type="text/css"></style></defs><path d="M686.28732 99.478421c-7.982649-7.982649-21.057991-7.982649-29.049154 0l-651.248139 651.272466c-7.986297 7.982649-7.986297 21.047044 0 29.038207L132.648132 906.455713c7.996028 7.982649 23.765499 14.510589 35.063811 14.510589l405.777135 0c11.301961 0 27.066567-6.527941 35.058946-14.510589l427.83615-427.841015c7.999677-7.986297 7.999677-21.053126 0-29.039423L686.28732 99.478421 686.28732 99.478421zM568.257725 829.182264c-7.982649 7.982649-23.759418 14.53005-35.045567 14.53005L219.043913 843.712314c-11.303177 0-27.072648-6.548618-35.063811-14.53005l-59.708703-59.702621c-7.982649-7.982649-7.982649-21.057991 0-29.0601l238.748454-238.738724c7.991163-7.976567 21.066505-7.976567 29.049154 0l237.318072 237.332668c7.982649 7.991163 7.982649 21.057991 0 29.04064L568.257725 829.182264 568.257725 829.182264z" p-id="1434"></path></svg>